<svg xmlns="http://www.w3.org/2000/svg" viewBox="0 0 1600 900" preserveAspectRatio="xMidYMax slice">
<defs><linearGradient id="sky" x1="0" y1="0" x2="0" y2="1"><stop offset="0" stop-color="#46c2ff"/><stop offset="1" stop-color="#c9f3ff"/></linearGradient>
<radialGradient id="glow"><stop offset="0" stop-color="#fff6a0" stop-opacity=".9"/><stop offset="1" stop-color="#fff6a0" stop-opacity="0"/></radialGradient>
<linearGradient id="sand" x1="0" y1="0" x2="0" y2="1"><stop offset="0" stop-color="#ffe2a6"/><stop offset="1" stop-color="#f2b866"/></linearGradient></defs>
<rect width="1600" height="900" fill="url(#sky)"/>
<circle cx="1260" cy="240" r="260" fill="url(#glow)"/><circle cx="1260" cy="240" r="96" fill="#ffe45c" stroke="#2a0e12" stroke-width="6"/>
<g opacity=".95"><ellipse cx="260" cy="150" rx="110" ry="46.199999999999996" fill="#fff"/><ellipse cx="309.5" cy="125.8" rx="60.50000000000001" ry="44.0" fill="#fff"/><animateTransform attributeName="transform" type="translate" values="0 0;60 0;0 0" dur="35s" repeatCount="indefinite"/></g><g opacity=".95"><ellipse cx="1180" cy="110" rx="90" ry="37.8" fill="#fff"/><ellipse cx="1220.5" cy="90.2" rx="49.50000000000001" ry="36.0" fill="#fff"/><animateTransform attributeName="transform" type="translate" values="0 0;60 0;0 0" dur="37s" repeatCount="indefinite"/></g><g opacity=".95"><ellipse cx="820" cy="230" rx="70" ry="29.4" fill="#fff"/><ellipse cx="851.5" cy="214.6" rx="38.5" ry="28.0" fill="#fff"/><animateTransform attributeName="transform" type="translate" values="0 0;60 0;0 0" dur="34s" repeatCount="indefinite"/></g><path d="M-200 560 q100 -14 200 0 t200 0 t200 0 t200 0 t200 0 t200 0 t200 0 t200 0 t200 0 t200 0 V900 H-200Z" fill="#2fb6f0" stroke="#2a0e12" stroke-width="5">
 <animateTransform attributeName="transform" type="translate" values="0 0;120 0;0 0" dur="9s" repeatCount="indefinite"/></path><path d="M-200 600 q100 -16 200 0 t200 0 t200 0 t200 0 t200 0 t200 0 t200 0 t200 0 t200 0 t200 0 V900 H-200Z" fill="#1a8fd8" stroke="#2a0e12" stroke-width="5">
 <animateTransform attributeName="transform" type="translate" values="0 0;-140 0;0 0" dur="7s" repeatCount="indefinite"/></path><path d="M-200 640 q100 -18 200 0 t200 0 t200 0 t200 0 t200 0 t200 0 t200 0 t200 0 t200 0 t200 0 V900 H-200Z" fill="#0f6cbf" stroke="#2a0e12" stroke-width="5">
 <animateTransform attributeName="transform" type="translate" values="0 0;160 0;0 0" dur="8s" repeatCount="indefinite"/></path>
<path d="M-50 760 Q400 700 800 735 T1650 720 V900 H-50Z" fill="url(#sand)" stroke="#2a0e12" stroke-width="6"/>
<g fill="none" stroke="#c98a3c" stroke-width="5" stroke-linecap="round" opacity=".7"><path d="M180 820 q20 -10 40 0"/><path d="M1320 800 q20 -10 40 0"/><path d="M640 850 q20 -10 40 0"/></g>
<g transform="translate(90 900) scale(1.05)"><path d="M0 0 q30 -220 90 -420 l26 6 q-40 200 -60 414Z" fill="#a0602a" stroke="#2a0e12" stroke-width="6"/>
 <g transform="translate(100 -418)"><path d="M0 0 q80 -60 170 10 q-12 -12 -93.50000000000001 -8.0Z" fill="#3fbf4a" stroke="#2a0e12" stroke-width="5"/><path d="M0 0 q60 -90 120 -60 q-12 -12 -66.0 48.0Z" fill="#3fbf4a" stroke="#2a0e12" stroke-width="5"/><path d="M0 0 q-40 -90 -110 -40 q-12 -12 60.50000000000001 32.0Z" fill="#3fbf4a" stroke="#2a0e12" stroke-width="5"/><path d="M0 0 q-70 -50 -160 30 q-12 -12 88.0 -24.0Z" fill="#3fbf4a" stroke="#2a0e12" stroke-width="5"/><path d="M0 0 q20 -60 40 90 q-12 -12 -22.0 -72.0Z" fill="#3fbf4a" stroke="#2a0e12" stroke-width="5"/><circle cx="-8" cy="14" r="14" fill="#7a3b12" stroke="#2a0e12" stroke-width="4"/><circle cx="14" cy="18" r="13" fill="#7a3b12" stroke="#2a0e12" stroke-width="4"/></g>
 <animateTransform attributeName="transform" type="rotate" additive="sum" values="0;1.5;0" dur="6s" repeatCount="indefinite"/></g><g transform="translate(1520 900) scale(0.95)"><path d="M0 0 q-30 -220 -90 -420 l26 6 q40 200 60 414Z" fill="#a0602a" stroke="#2a0e12" stroke-width="6"/>
 <g transform="translate(-100 -418)"><path d="M0 0 q-80 -60 -170 10 q12 -12 93.50000000000001 -8.0Z" fill="#3fbf4a" stroke="#2a0e12" stroke-width="5"/><path d="M0 0 q-60 -90 -120 -60 q12 -12 66.0 48.0Z" fill="#3fbf4a" stroke="#2a0e12" stroke-width="5"/><path d="M0 0 q40 -90 110 -40 q12 -12 -60.50000000000001 32.0Z" fill="#3fbf4a" stroke="#2a0e12" stroke-width="5"/><path d="M0 0 q70 -50 160 30 q12 -12 -88.0 -24.0Z" fill="#3fbf4a" stroke="#2a0e12" stroke-width="5"/><path d="M0 0 q-20 -60 -40 90 q12 -12 22.0 -72.0Z" fill="#3fbf4a" stroke="#2a0e12" stroke-width="5"/><circle cx="8" cy="14" r="14" fill="#7a3b12" stroke="#2a0e12" stroke-width="4"/><circle cx="-14" cy="18" r="13" fill="#7a3b12" stroke="#2a0e12" stroke-width="4"/></g>
 <animateTransform attributeName="transform" type="rotate" additive="sum" values="0;-1.5;0" dur="6s" repeatCount="indefinite"/></g>
</svg>